<?xml version="1.0" encoding="UTF-8" standalone="no"?>
<!-- Created with Inkscape (http://www.inkscape.org/) -->

<svg
   xmlns:dc="http://purl.org/dc/elements/1.1/"
   xmlns:cc="http://creativecommons.org/ns#"
   xmlns:rdf="http://www.w3.org/1999/02/22-rdf-syntax-ns#"
   xmlns:svg="http://www.w3.org/2000/svg"
   xmlns="http://www.w3.org/2000/svg"
   xmlns:sodipodi="http://sodipodi.sourceforge.net/DTD/sodipodi-0.dtd"
   xmlns:inkscape="http://www.inkscape.org/namespaces/inkscape"
   id="svg3007"
   version="1.1"
   inkscape:version="0.48.2 r9819"
   width="100"
   height="89"
   sodipodi:docname="å¾.png">
  <metadata
     id="metadata3013">
    <rdf:RDF>
      <cc:Work
         rdf:about="">
        <dc:format>image/svg+xml</dc:format>
        <dc:type
           rdf:resource="http://purl.org/dc/dcmitype/StillImage" />
        <dc:title></dc:title>
      </cc:Work>
    </rdf:RDF>
  </metadata>
  <defs
     id="defs3011" />
  <sodipodi:namedview
     pagecolor="#ffffff"
     bordercolor="#666666"
     borderopacity="1"
     objecttolerance="10"
     gridtolerance="10"
     guidetolerance="10"
     inkscape:pageopacity="0"
     inkscape:pageshadow="2"
     inkscape:window-width="640"
     inkscape:window-height="425"
     id="namedview3009"
     showgrid="false"
     inkscape:zoom="2.6516854"
     inkscape:cx="50"
     inkscape:cy="44.5"
     inkscape:window-x="963"
     inkscape:window-y="96"
     inkscape:window-maximized="0"
     inkscape:current-layer="svg3007" />
  <path
     style="fill:#000000"
     d="M 49.165124,83.487083 C 46.874306,80.423857 45,77.719735 45,77.477921 c 0,-0.241813 1.957692,-0.171329 4.350427,0.156632 l 4.350427,0.596292 0.638567,-3.865422 C 54.690633,72.23944 54.982941,67.0125 54.988994,62.75 L 55,55 52.25,55.02445 c -1.5125,0.01345 -4.737869,0.482646 -7.167486,1.042669 -4.941676,1.139049 -10.39158,0.360083 -9.80443,-1.401367 C 35.581936,53.754191 46.859783,51.569498 53.75,51.087451 54.489152,51.035739 55,49.60305 55,47.581787 55,42.043489 54.199685,41 49.952028,41 c -5.402919,0 -5.813871,-1.697382 -0.732202,-3.024268 2.354096,-0.614683 6.49935,-1.760685 9.211675,-2.546669 5.781214,-1.675295 8.502817,-1.77695 10.568499,-0.394747 1.308058,0.875257 1.270297,1.179537 -0.295098,2.377906 -0.987304,0.755819 -3.799804,1.67484 -6.25,2.04227 C 58.160443,40.098486 56.904963,41.205196 59,42.5 c 0.55,0.339919 1,2.21896 1,4.175648 0,3.221989 0.212266,3.494165 2.25,2.885055 5.2664,-1.574209 14.243356,-1.740947 16.152775,-0.300022 3.251179,2.453471 0.953188,3.738419 -6.711792,3.752974 C 59.230847,53.037315 60,52.053414 60,67.968748 c 0,12.593603 -0.187051,14.011555 -2.25,17.056276 -1.2375,1.826435 -2.738194,3.480714 -3.334876,3.676175 -0.596681,0.195462 -2.959181,-2.150891 -5.25,-5.214116 z m -32.165217,-3.48743 c -0.8462,-3.142546 -0.74725,-5.11135 0.461456,-9.181501 C 18.370585,67.756468 19,61.784003 19,56.218156 l 0,-9.418841 -5.620891,5.137177 C 7.5335283,57.279024 2.2495124,60.582846 1.2111525,59.544486 0.87950971,59.212843 3.7992983,55.692162 7.6995716,51.720749 15.755799,43.517581 23.482432,32.632958 24.48291,28.077811 c 0.808576,-3.681423 2.396795,-3.899213 5.368338,-0.73615 l 2.199876,2.34166 -5.597577,6.828952 c -4.480972,5.466711 -5.436848,7.243748 -4.791833,8.908339 0.443159,1.143663 0.813066,9.548593 0.822015,18.677622 0.01237,12.61848 -0.3128,16.994278 -1.356174,18.25 -2.088845,2.513969 -2.950283,2.023821 -4.127648,-2.348581 z M 33.631483,77.29815 C 33.284167,76.950834 33,75.619714 33,74.340106 33,71.657817 40.962921,60.85905 42.321617,61.69877 c 1.482977,0.916531 0.04731,7.974381 -2.289723,11.256439 -2.345608,3.294102 -5.38613,5.357221 -6.400411,4.342941 z M 72.50017,70.924769 C 68.925077,67.491788 66,64.2468 66,63.713684 c 0,-1.293093 7.405052,-0.0727 11.075328,1.82527 1.575961,0.814961 3.356466,2.399343 3.956678,3.52085 1.35849,2.538362 0.890291,7.147292 -0.781836,7.696354 -0.687406,0.225717 -4.174906,-2.398408 -7.75,-5.831389 z M 35.86899,36.456953 C 45.367208,26.422742 53.272727,12.166739 53.272727,5.0728407 c 0,-4.56876935 1.008058,-5.01324148 5.776933,-2.5471606 3.3934,1.7547956 3.517192,2.2200129 1.396419,5.247841 -1.449402,2.0693111 -1.372371,2.4565589 1.145243,5.7573209 3.492512,4.578919 13.615246,13.023731 18.753843,15.645248 2.211552,1.12825 6.957522,3.156666 10.546599,4.507591 8.517891,3.206125 9.060155,3.599513 6.098155,4.423934 C 91.836781,39.5419 81.603338,39.056347 78.804005,37.244735 76.144622,35.523694 64.697142,22.618308 60.139104,16.202747 l -2.342586,-3.297252 -4.267016,7.48764 c -5.85445,10.273226 -9.918434,15.161157 -16.844971,20.260183 -9.290024,6.838927 -9.62582,5.111087 -0.815541,-4.196365 z M 10,29.390209 c 0,-0.335385 2.32624,-3.147885 5.169423,-6.25 C 21.59932,16.124733 26,9.3079132 26,6.3632363 26,5.128375 26.369294,3.8897978 26.820653,3.6108424 28.039229,2.857721 34,6.7575465 34,8.3079195 34,9.786299 19.327008,24.343172 14.34563,27.80675 11.110792,30.055949 10,30.460699 10,29.390209 z"
     id="path3017"
     inkscape:connector-curvature="0" />
</svg>
