<?xml version="1.0" encoding="UTF-8" standalone="no"?>
<svg
   xmlns:dc="http://purl.org/dc/elements/1.1/"
   xmlns:cc="http://creativecommons.org/ns#"
   xmlns:rdf="http://www.w3.org/1999/02/22-rdf-syntax-ns#"
   xmlns:svg="http://www.w3.org/2000/svg"
   xmlns="http://www.w3.org/2000/svg"
   id="svg1300"
   version="1.1"
   viewBox="0 0 50.800001 50.800001"
   height="2in"
   width="2in">
  <defs
     id="defs1294" />
  <metadata
     id="metadata1297">
    <rdf:RDF>
      <cc:Work
         rdf:about="">
        <dc:format>image/svg+xml</dc:format>
        <dc:type
           rdf:resource="http://purl.org/dc/dcmitype/StillImage" />
        <dc:title></dc:title>
      </cc:Work>
    </rdf:RDF>
  </metadata>
  <g
     id="layer1">
    <circle
       style="fill:#ffff00;fill-opacity:1;stroke:none;stroke-width:0.316616"
       id="path3888-0-7-4-5-6-7"
       cx="25.45742"
       cy="25.591057"
       r="23.694206" />
    <path
       id="path2105-3-4-66-2"
       d="m 12.948925,36.520703 c 0,0 -0.664526,-0.196054 -0.587805,-1.209717 0,0 -0.238488,0.11101 -0.230073,0.247978 0.0079,0.136079 -0.834886,-1.107484 -0.110743,-2.215048 0.72415,-1.107492 1.933893,-1.039275 2.538752,-0.503117 0,0 0.22139,0.366148 0.03402,-0.536239 -0.18746,-0.903102 -0.204381,-4.021174 1.686828,-5.895416 1.891289,-1.874155 3.561063,-2.044605 5.690893,-2.35131 0,0 4.293698,0.153979 4.941125,-0.05371 0.647248,-0.204112 1.584639,-0.06266 1.329051,-1.277934 -0.256034,-1.209718 -1.090474,-1.55044 -0.170092,-4.10622 0,0 0.102061,-0.119062 -0.242606,-0.07162 -0.344663,0.04475 -3.9338,-1.259043 -5.57233,-3.451899 0,0 -1.108415,-1.228875 -1.698772,-2.506004 -0.5904,-1.277038 1.421664,-0.746617 1.421664,-0.746617 0,0 2.1928,0.36167 2.457788,0.565782 0.264986,0.205005 -0.505803,-0.626659 -0.505803,-0.626659 0,0 -0.602487,-0.469992 -1.072212,-1.8311818 -0.469993,-1.3614587 1.144546,-0.4225468 1.602365,-0.2408155 0.45746,0.1808353 2.93974,1.6867823 3.795128,3.5542233 0,0 1.445788,2.722828 1.674697,3.493975 0,0 0.02687,0.229178 0.156666,0.229178 0,0 1.732349,-0.665152 3.606593,0.288262 1.874244,0.954131 1.499413,1.022257 1.891254,1.328962 0.392107,0.307063 0.903102,1.720892 0.971228,2.010587 0,0 0.732296,1.090473 0.698277,1.533432 -0.03582,0.443136 -0.13608,0.784215 -0.903013,1.294942 -0.76721,0.511174 -0.409119,0.750199 -2.351399,1.141591 l -0.148608,0.05371 c 0,0 1.076866,1.390016 1.102469,2.540201 0.02687,1.150096 0.528184,3.688776 -2.658102,7.096541 0,0 -1.47381,1.312042 -0.366146,2.376912 0,0 0.417173,0.400167 1.371662,0.83435 0.954131,0.434184 1.19271,0.809284 1.19271,0.809284 0,0 0.741246,0.809284 -0.758256,1.013753 -1.499413,0.204111 -2.496157,0.102951 -2.496157,0.102951 0,0 -0.366148,-0.145028 -0.835246,-1.311865 0,0 -0.162036,-0.40106 -0.51923,-0.60517 -0.35809,-0.204113 -0.979734,-0.818236 -1.363069,-1.328963 l -0.08057,-0.11101 -2.726229,0.366147 c 0,0 -0.409118,0.962547 -1.405683,1.414187 0,0 -0.196055,0.187997 0.153084,0.128017 0.349137,-0.05371 2.572877,-0.307063 3.390665,0.153979 0.818236,0.460145 1.047862,0.724236 0.95422,1.167104 -0.09399,0.443138 -1.226816,0.316016 -1.226816,0.316016 0,0 -3.331043,-0.468204 -5.145666,-0.247978 l -5.61436,-0.08953 c 0,0 -1.397169,0.0358 -1.1927,-1.516513 0,0 0.237503,-1.082595 1.538766,-0.768998 0,0 0.337411,0.02687 0.04834,-0.240814 -0.289247,-0.264988 -0.84339,-0.301692 -1.46987,-1.349375 0,0 -0.123451,-0.292738 -0.186744,0.256035 -0.06355,0.547879 -0.799347,0.953595 -0.799347,0.953595 0,0 0.212885,-0.340186 0.06804,-0.477157 0,0 -0.834886,0.775267 -1.882784,0.391215"
       style="fill:#000000;stroke:none;stroke-width:0.190833px;stroke-linecap:butt;stroke-linejoin:miter;stroke-opacity:1" />
  </g>
</svg>
